<?xml version="1.0" encoding="UTF-8" standalone="no"?>
<svg
   clip-rule="evenodd"
   fill-rule="evenodd"
   height="53.086765mm"
   image-rendering="optimizeQuality"
   shape-rendering="geometricPrecision"
   text-rendering="geometricPrecision"
   viewBox="0 0 4578.9217 5308.7665"
   width="45.789711mm"
   version="1.1"
   id="svg16"
   sodipodi:docname="logo-ibjjf-horizontal-WHITE.svg"
   inkscape:version="1.2.1 (9c6d41e410, 2022-07-14)"
   xmlns:inkscape="http://www.inkscape.org/namespaces/inkscape"
   xmlns:sodipodi="http://sodipodi.sourceforge.net/DTD/sodipodi-0.dtd"
   xmlns="http://www.w3.org/2000/svg"
   xmlns:svg="http://www.w3.org/2000/svg">
  <defs
     id="defs20" />
  <sodipodi:namedview
     id="namedview18"
     pagecolor="#505050"
     bordercolor="#ffffff"
     borderopacity="1"
     inkscape:showpageshadow="0"
     inkscape:pageopacity="0"
     inkscape:pagecheckerboard="1"
     inkscape:deskcolor="#505050"
     inkscape:document-units="mm"
     showgrid="false"
     inkscape:zoom="1.7271384"
     inkscape:cx="92.349285"
     inkscape:cy="100.16568"
     inkscape:window-width="1920"
     inkscape:window-height="1009"
     inkscape:window-x="3432"
     inkscape:window-y="-8"
     inkscape:window-maximized="1"
     inkscape:current-layer="svg16" />
  <path
     d="m 3026.7916,3592.7665 c -418,20 -905,-548 -501,-998 241,-219 517,-156 715.9998,42 393,391 352,1069 -248.9998,1225 -3,-2 -5,-4 -8,-7 407.9998,-138 507.9998,-806 37,-822 -336,-18 -277,444 5,560 z m 22,881 c 2,1 -161,144 -179,298 -72,-7 -171,30 -159,-87 15,-154 205,-211 338,-211 z m 23,30 c 84,86 142.9998,114 234.9998,121 -13,54 -33,194 -14,276 -112,30 -222.9998,74 -354.9998,-61 -20,-142 68,-275 134,-336 z m 268.9998,120 c 105,4 140,-25 187,-46 86,43 242,230 185,312 -84,120 -245,59 -342,17 -5,-96 -15,-189 -30,-283 z m 332,-451 c -78,192 427,468 145,739 26,-165 -147,-320 -300,-393 -150,54 -288,75 -401.9998,-51 507.9998,-66 178.9998,-380 -33,-506 345.9998,-77 523.9998,-413 528.9998,-855 233,470 138,812 61,1066 z m 164,-1524 c -81,-225 160,-352 322,-400 -82,161 -50,374 64,496 -65,-6 -140,-12 -188,-69 -84,60 -177,17 -198,-27 z m -2983.99977,2187 c -87,44 -276,62 -460,1 -185,-60 -412.000003,66 -378.000003,114 l 28,38 c 15,21 -44.9999999,57 -42.99999992,86 7.00000002,74 93.99999992,180 152.00000292,91 34,-51 89,-214 262,-236 172,-21 354,43 439,-94 z m 461.99997,-1674 c -143,-215 -226,-474 -226,-752 0,-61 4,-121 11,-179 318,-389 763,-393 1286,-201 -629,119 -951,625 -1071,1132 z m 1375,592 c -77,14 -156,21 -236,21 -403,0 -766,-175 -1015,-453 65,-575 434,-1118 1190,-1011 1,1 1,2 1,3 -255,133 -428,399 -428,706 0,331 201,614 488,734 z m -1616,125 c 469,243 1184,241 1596,40 -7,-1 -15,-1 -22,-2 -64,8 -128,13 -194,13 -408,0 -778,-161 -1051,-422 -33,166 -149,301 -329,371 z m -731.99997,-871 c -159,-481 226,-973 666.99997,-1071 -48.99997,149 -74.99997,262 -74.99997,473 0,210 40,460 150.99997,672 -205.99997,-48 -314.99997,-20 -458.99997,145 18,-132 20,-241 -44,-345 z m 23,106 c -120,139 -250,498 -250,692 32,-26 82,-112 99,-145 32,96 -23,179 -35,198 94,74 224,126 330,97 -86,-40 -148,-143 -114,-243 253,-268 530,96 340,236 l -85,4 c 58,91 117,85 229,91 -3,-98 -12,-165 157.99997,-262 570,-316 46,-783 -257.99997,-578 l -255,213 c 15,-80 82,-272 23,-413 z m -83,448 c -2,-85 9,-177 69,-283 34,27 51,78 36,121 z M 2230.7916,874.76652 c -143,-374 298,-473 569,-291 249,153 194,-175 38,-321 -146,-137 -367,-203.999996 -617,-189.999996 370,-179.000004 776,7 1115.9998,183.999996 l -159,79 c 153,417 -179.9998,571 -403.9998,430 -154,-100 -441,-210 -543,109 z m 393,-464 c -236,-178 -920,-56 -728,490 166,474.99998 956,322.99998 1034,82 -910,443.99998 -1133,-672 -306,-572 z m 5,887.99998 c 356,-291 1000.9998,-339.99998 1206.9998,150 93,249 385,145 604,195 -141,145 -55,290 139,370 -40,247 -390,354 -190,742 -292,-165 -230,-453 -132,-599 70,-116 -29,-85 -87,-184 -259,-52 -286,45 -477,30 -26,-457 -318,-860 -1063.9998,-704 z m -28,146 c 83,270 -21,528 -170,719 294,-18 586,78 781.9998,313 98,-120 106,-363 120,-507 86,156 -19,344 91,500 114,139 347,-292 695,-351 -159,-89 -352,69 -514,34 -50,-216 -66,-565 -454.9998,-743 95.9998,249 108.9998,696 43.9998,846 -203.9998,-240 -57.9998,-824 -592.9998,-811 z m -315,2706 c -180,231 2,311 -29,504 -248,-113 -731,-246 -1063,330 14,74 108,132 215,185 -167,106 -282,69 -402,-3 -188.99997,165 -355.99997,81 -512.99997,28 -101,-22 -222,16 -272,114 -76,-234 192,-352 316,-342 255,33 568.99997,-106 511.99997,-497 202,-87 296,-106 284,-368 300,77 586,90 952,49 z"
     fill="#faab19"
     id="path2" />
</svg>
